#!OML:ASF E:\motion texture\Top Level 1\Subject 1\Session 1\male.ASF
:FULLY-SPECIFIED
:DEGREES
146
root 12.2017 17.673 5.3174 214.123 -86.579 -216.124
lowerback 5.53003 -2.53278 -3.62121
upperback -0.668209 -3.59774 0.754698
thorax -3.51865 -1.71113 3.10671
lowerneck -20.7512 -3.98428 -6.11692
upperneck 15.2342 -5.34613 8.30802
head 8.55556 -2.03717 3.10075
rclavicle -1.11102e-014 3.57812e-015
rhumerus -46.9858 -8.31198 -73.6227
rradius 40.8327
rwrist 1.60079
rhand -9.95101 -11.8189
rfingers 7.12502
rthumb 16.0308 -41.1757
lclavicle -1.11102e-014 3.57812e-015
lhumerus -25.9244 -13.9807 100.707
lradius 62.1581
lwrist 0.577798
lhand -12.3316 4.89695
lfingers 7.12502
lthumb 13.7374 34.4235
rfemur -48.7477 -11.3979 15.8414
rtibia 75.7948
rfoot 200.412 7.46557
rtoes 20.1558
lfemur -9.19345 1.73156 -24.3131
ltibia 25.3257
lfoot 349.044 -1.30681
ltoes 7.03262
147
root 12.0907 17.7003 5.3168 222.792 -86.7876 -224.978
lowerback 6.04146 -2.84157 -4.00106
upperback -0.648575 -4.05533 0.800384
thorax -3.72142 -1.92559 3.43089
lowerneck -20.8061 -3.85452 -6.0296
upperneck 15.2979 -5.15576 8.12619
head 8.5633 -1.95837 3.05103
rclavicle 4.0726e-014 2.78299e-015
rhumerus -47.8693 -8.55053 -72.7442
rradius 40.4784
rwrist 2.09673
rhand -9.89528 -11.7021
rfingers 7.12502
rthumb 16.0845 -41.0546
lclavicle 4.0726e-014 2.78299e-015
lhumerus -24.4661 -15.4245 100.882
lradius 63.1119
lwrist 0.148315
lhand -12.1153 4.59102
lfingers 7.12502
lthumb 13.9458 34.1033
rfemur -52.3615 -12.3962 16.3297
rtibia 73.9933
rfoot 200.525 8.23165
rtoes 21.7816
lfemur -8.28804 1.08847 -24.7976
ltibia 24.7373
lfoot 348.96 -1.12363
ltoes 6.86373
148
root 11.9773 17.7254 5.31155 232.701 -86.9822 -235.072
lowerback 6.53999 -3.14837 -4.38374
upperback -0.631484 -4.51309 0.872772
thorax -3.91025 -2.13913 3.7888
lowerneck -20.8765 -3.73448 -5.94445
upperneck 15.3663 -4.97781 7.94524
head 8.57696 -1.88517 3.00015
rclavicle -5.4262e-015 9.54166e-015
rhumerus -48.7608 -8.68957 -71.9094
rradius 40.233
rwrist 2.5701
rhand -9.82141 -11.639
rfingers 7.12502
rthumb 16.1556 -40.9857
lclavicle -5.4262e-015 9.54166e-015
lhumerus -23.059 -16.782 100.974
lradius 63.9943
lwrist -0.306226
lhand -11.8987 4.28841
lfingers 7.12502
lthumb 14.1546 33.7862
rfemur -55.8854 -13.3199 16.9172
rtibia 72.5421
rfoot 200.665 9.07556
rtoes 23.4015
lfemur -7.40574 0.418917 -25.2052
ltibia 24.1999
lfoot 348.883 -1.00985
ltoes 6.66136
149
root 11.8614 17.7487 5.30297 243.005 -87.1707 -245.561
lowerback 7.02284 -3.44575 -4.69402
upperback -0.613207 -4.95396 0.979002
thorax -4.08624 -2.34501 4.14385
lowerneck -20.9541 -3.6239 -5.87176
upperneck 15.4339 -4.81224 7.78093
head 8.59386 -1.81686 2.95525
rclavicle -4.27853e-014 1.19271e-014
rhumerus -49.6452 -8.73785 -71.1261
rradius 40.0705
rwrist 2.91744
rhand -9.70847 -11.5674
rfingers 7.12502
rthumb 16.2644 -40.9052
lclavicle -4.27853e-014 1.19271e-014
lhumerus -21.6977 -18.0508 100.997
lradius 64.7972
lwrist -0.704506
lhand -11.7242 3.987
lfingers 7.12502
lthumb 14.3227 33.473
rfemur -59.2904 -14.1204 17.6329
rtibia 71.4422
rfoot 200.829 9.88041
rtoes 24.9445
lfemur -6.52542 -0.263114 -25.4819
ltibia 23.6926
lfoot 348.805 -0.912888
ltoes 6.38245
150
root 11.7428 17.7707 5.29271 253.295 -87.3492 -256.018
lowerback 7.46228 -3.72506 -4.89984
upperback -0.593014 -5.36096 1.11035
thorax -4.23967 -2.53631 4.465
lowerneck -21.0355 -3.52306 -5.80276
upperneck 15.49 -4.66157 7.63305
head 8.60969 -1.75429 2.91438
rclavicle -2.73748e-014 1.19271e-014
rhumerus -50.5046 -8.71252 -70.4107
rradius 39.9633
rwrist 3.10541
rhand -9.57532 -11.4322
rfingers 7.12502
rthumb 16.3926 -40.7595
lclavicle -2.73748e-014 1.19271e-014
lhumerus -20.3937 -19.2329 100.957
lradius 65.539
lwrist -0.995927
lhand -11.5867 3.70428
lfingers 7.12502
lthumb 14.4553 33.1808
rfemur -62.5796 -14.7632 18.4571
rtibia 70.6723
rfoot 201.008 10.6026
rtoes 26.2839
lfemur -5.65252 -0.959034 -25.6379
ltibia 23.1974
lfoot 348.723 -0.775953
ltoes 6.02856
151
root 11.6219 17.7919 5.28195 263.259 -87.5129 -266.125
lowerback 7.85273 -3.97948 -5.00023
upperback -0.574096 -5.72321 1.25831
thorax -4.37518 -2.7079 4.74059
lowerneck -21.1231 -3.4312 -5.73461
upperneck 15.5361 -4.52437 7.49611
head 8.62486 -1.69708 2.87542
rclavicle -7.69747e-014 2.0276e-014
rhumerus -51.3282 -8.62929 -69.7654
rradius 39.8932
rwrist 3.12129
rhand -9.42733 -11.2526
rfingers 7.12502
rthumb 16.5351 -40.5681
lclavicle -7.69747e-014 2.0276e-014
lhumerus -19.1435 -20.3191 100.862
lradius 66.2114
lwrist -1.18996
lhand -11.4836 3.44627
lfingers 7.12502
lthumb 14.5546 32.9157
rfemur -65.746 -15.2342 19.3561
rtibia 70.212
rfoot 201.198 11.2337
rtoes 27.3911
lfemur -4.79406 -1.66461 -25.7039
ltibia 22.7105
lfoot 348.639 -0.556352
ltoes 5.59536
152
root 11.4988 17.8127 5.27191 272.387 -87.6456 -275.374
lowerback 8.18597 -4.20092 -5.01966
upperback -0.549814 -6.03105 1.4067
thorax -4.4839 -2.85538 4.96425
lowerneck -21.2133 -3.34851 -5.66884
upperneck 15.5648 -4.40096 7.37354
head 8.63632 -1.64521 2.83969
rclavicle 4.02582e-014 -1.39149e-014
rhumerus -52.1052 -8.51973 -69.1837
rradius 39.844
rwrist 3.02259
rhand -9.28255 -11.0408
rfingers 7.12502
rthumb 16.6744 -40.3446
lclavicle 4.02582e-014 -1.39149e-014
lhumerus -17.9356 -21.3193 100.711
lradius 66.8254
lwrist -1.2469
lhand -11.4046 3.21029
lfingers 7.12502
lthumb 14.6307 32.6742
rfemur -68.7703 -15.5319 20.2695
rtibia 70.0269
rfoot 201.378 11.8262
rtoes 28.2594
lfemur -3.94063 -2.3678 -25.7377
ltibia 22.2242
lfoot 348.556 -0.22492
ltoes 5.07249
153
root 11.3737 17.8333 5.26282 280.329 -87.7392 -283.426
lowerback 8.4802 -4.38687 -4.99467
upperback -0.520938 -6.28546 1.54379
thorax -4.57609 -2.97822 5.14473
lowerneck -21.3058 -3.27487 -5.60547
upperneck 15.5772 -4.29094 7.26366
head 8.64427 -1.59864 2.8067
rclavicle 3.59909e-015 9.14409e-015
rhumerus -52.8291 -8.4105 -68.6531
rradius 39.7954
rwrist 2.8704
rhand -9.14771 -10.8129
rfingers 7.12502
rthumb 16.8042 -40.1057
lclavicle 3.59909e-015 9.14409e-015
lhumerus -16.7777 -22.2338 100.52
lradius 67.3785
lwrist -1.2333
lhand -11.3618 3.01794
lfingers 7.12502
lthumb 14.6719 32.4788
rfemur -71.625 -15.6797 21.151
rtibia 70.0835
rfoot 201.527 12.4244
rtoes 28.8613
lfemur -3.09043 -3.04803 -25.7834
ltibia 21.751
lfoot 348.481 0.210356
ltoes 4.48199
154
root 11.2471 17.8539 5.25473 286.818 -87.7974 -290.037
lowerback 8.75983 -4.53812 -4.95133
upperback -0.480619 -6.49135 1.66257
thorax -4.65682 -3.07833 5.29082
lowerneck -21.4011 -3.2106 -5.54167
upperneck 15.575 -4.19427 7.15999
head 8.64899 -1.5578 2.77378
rclavicle -9.26989e-015 -2.14687e-014
rhumerus -53.4963 -8.32687 -68.1578
rradius 39.7412
rwrist 2.7334
rhand -9.04461 -10.6152
rfingers 7.12502
rthumb 16.9035 -39.8996
lclavicle -9.26989e-015 -2.14687e-014
lhumerus -15.66 -23.0756 100.289
lradius 67.8686
lwrist -1.18905
lhand -11.3387 2.8638
lfingers 7.12502
lthumb 14.6942 32.3231
rfemur -74.2687 -15.7123 21.9729
rtibia 70.3539
rfoot 201.632 13.05
rtoes 29.1853
lfemur -2.22947 -3.67704 -25.8616
ltibia 21.3052
lfoot 348.414 0.718538
ltoes 3.83817
